<svg xmlns="http://www.w3.org/2000/svg" width="1400" height="340" viewBox="0 0 1400 340">
  <rect width="1400" height="340" fill="#0d1117"/>
  <text x="700" y="44" text-anchor="middle" font-family="Consolas, Menlo, monospace" font-size="20" font-weight="700" letter-spacing="4" fill="#e6edf3">MOST USED LANGUAGES</text>
<text x="320" y="70" font-family="Consolas, Menlo, monospace" font-size="14" fill="#8b949e">Python</text><rect x="490" y="59" width="590" height="10" rx="5" fill="#161b22"/><rect x="490" y="59" width="287.33" height="10" rx="5" fill="#3572A5"><animate attributeName="width" values="4;287.33" dur="1.1s" repeatCount="1" fill="freeze"/></rect><text x="1096" y="70" text-anchor="end" font-family="Consolas, Menlo, monospace" font-size="14" fill="#e6edf3">49%</text>
<text x="320" y="112" font-family="Consolas, Menlo, monospace" font-size="14" fill="#8b949e">C#</text><rect x="490" y="101" width="590" height="10" rx="5" fill="#161b22"/><rect x="490" y="101" width="132.75" height="10" rx="5" fill="#178600"><animate attributeName="width" values="4;132.75" dur="1.1s" repeatCount="1" fill="freeze"/></rect><text x="1096" y="112" text-anchor="end" font-family="Consolas, Menlo, monospace" font-size="14" fill="#e6edf3">22%</text>
<text x="320" y="154" font-family="Consolas, Menlo, monospace" font-size="14" fill="#8b949e">HTML</text><rect x="490" y="143" width="590" height="10" rx="5" fill="#161b22"/><rect x="490" y="143" width="89.09" height="10" rx="5" fill="#e34c26"><animate attributeName="width" values="4;89.09" dur="1.1s" repeatCount="1" fill="freeze"/></rect><text x="1096" y="154" text-anchor="end" font-family="Consolas, Menlo, monospace" font-size="14" fill="#e6edf3">15%</text>
<text x="320" y="196" font-family="Consolas, Menlo, monospace" font-size="14" fill="#8b949e">CSS</text><rect x="490" y="185" width="590" height="10" rx="5" fill="#161b22"/><rect x="490" y="185" width="41.3" height="10" rx="5" fill="#563d7c"><animate attributeName="width" values="4;41.3" dur="1.1s" repeatCount="1" fill="freeze"/></rect><text x="1096" y="196" text-anchor="end" font-family="Consolas, Menlo, monospace" font-size="14" fill="#e6edf3">7%</text>
<text x="320" y="238" font-family="Consolas, Menlo, monospace" font-size="14" fill="#8b949e">C++</text><rect x="490" y="227" width="590" height="10" rx="5" fill="#161b22"/><rect x="490" y="227" width="39.53" height="10" rx="5" fill="#f34b7d"><animate attributeName="width" values="4;39.53" dur="1.1s" repeatCount="1" fill="freeze"/></rect><text x="1096" y="238" text-anchor="end" font-family="Consolas, Menlo, monospace" font-size="14" fill="#e6edf3">7%</text>
</svg>
