<svg xmlns="http://www.w3.org/2000/svg" width="1400" height="298" viewBox="0 0 1400 298">
  <rect width="1400" height="298" fill="#0d1117"/>
  <text x="700.0" y="40" text-anchor="middle" font-family="Consolas, monospace" font-size="20" font-weight="700" letter-spacing="4" fill="#e6edf3">MOST USED LANGUAGES</text>

  <text x="340" y="70" font-family="Consolas, monospace" font-size="14" fill="#8b949e">C++</text>
  <rect x="510" y="59" width="550" height="10" rx="5" fill="#161b22"/>
  <rect x="510" y="59" width="137.5" height="10" rx="5" fill="#f34b7d">
    <animate attributeName="width" values="4;137.5" dur="1.2s" repeatCount="1" fill="freeze"/>
  </rect>
  <text x="1076" y="70" text-anchor="end" font-family="Consolas, monospace" font-size="14" fill="#e6edf3">25%</text>

  <text x="340" y="112" font-family="Consolas, monospace" font-size="14" fill="#8b949e">Python</text>
  <rect x="510" y="101" width="550" height="10" rx="5" fill="#161b22"/>
  <rect x="510" y="101" width="137.5" height="10" rx="5" fill="#3572A5">
    <animate attributeName="width" values="4;137.5" dur="1.2s" repeatCount="1" fill="freeze"/>
  </rect>
  <text x="1076" y="112" text-anchor="end" font-family="Consolas, monospace" font-size="14" fill="#e6edf3">25%</text>

  <text x="340" y="154" font-family="Consolas, monospace" font-size="14" fill="#8b949e">HTML</text>
  <rect x="510" y="143" width="550" height="10" rx="5" fill="#161b22"/>
  <rect x="510" y="143" width="137.5" height="10" rx="5" fill="#e34c26">
    <animate attributeName="width" values="4;137.5" dur="1.2s" repeatCount="1" fill="freeze"/>
  </rect>
  <text x="1076" y="154" text-anchor="end" font-family="Consolas, monospace" font-size="14" fill="#e6edf3">25%</text>

  <text x="340" y="196" font-family="Consolas, monospace" font-size="14" fill="#8b949e">C#</text>
  <rect x="510" y="185" width="550" height="10" rx="5" fill="#161b22"/>
  <rect x="510" y="185" width="137.5" height="10" rx="5" fill="#178600">
    <animate attributeName="width" values="4;137.5" dur="1.2s" repeatCount="1" fill="freeze"/>
  </rect>
  <text x="1076" y="196" text-anchor="end" font-family="Consolas, monospace" font-size="14" fill="#e6edf3">25%</text>
</svg>
